{
  "source": "C:\\Users\\Peter\\Desktop\\stuff\\MIUN\\quantitative_research\\video_compression\\videos\\BVI-HD\\PlasmaAveragePan_1920x1080_60fps.mp4",
  "output": "C:\\Users\\Peter\\Desktop\\stuff\\MIUN\\quantitative_research\\video_compression\\compressed_videos\\BVI-HD\\h264\\12\\PlasmaAveragePan_1920x1080_60fps_h264.mp4",
  "codec": "h264",
  "ok": "Input #0, mov,mp4,m4a,3gp,3g2,mj2, from 'C:\\Users\\Peter\\Desktop\\stuff\\MIUN\\quantitative_research\\video_compression\\videos\\BVI-HD\\PlasmaAveragePan_1920x1080_60fps.mp4':\n  Metadata:\n    major_brand     : isom\n    minor_version   : 512\n    compatible_brands: isomiso2avc1mp41\n    encoder         : Lavf54.28.101\n  Duration: 00:00:05.00, start: 0.000000, bitrate: 73730 kb/s\n  Stream #0:0[0x1](und): Video: h264 (High 4:4:4 Predictive) (avc1 / 0x31637661), yuv420p(progressive), 1920x1080, 73727 kb/s, 60 fps, 60 tbr, 60 tbn (default)\n    Metadata:\n      handler_name    : VideoHandler\n      vendor_id       : [0][0][0][0]\n[out#0/mp4 @ 000001da36837900] Codec AVOption b:a (set bitrate (in bits/s)) has not been used for any stream. The most likely reason is either wrong type (e.g. a video option with no video streams) or that it is a private option of some decoder which was not actually used for any stream.\nStream mapping:\n  Stream #0:0 -> #0:0 (h264 (native) -> h264 (libx264))\nPress [q] to stop, [?] for help\n[libx264 @ 000001da36722b80] using cpu capabilities: MMX2 SSE2Fast SSSE3 SSE4.2 AVX FMA3 BMI2 AVX2\n[libx264 @ 000001da36722b80] profile High, level 5.0, 4:2:0, 8-bit\n[libx264 @ 000001da36722b80] 264 - core 165 r3222 b35605a - H.264/MPEG-4 AVC codec - Copyleft 2003-2025 - http://www.videolan.org/x264.html - options: cabac=1 ref=5 deblock=1:0:0 analyse=0x3:0x113 me=hex subme=8 psy=1 psy_rd=1.00:0.00 mixed_ref=1 me_range=16 chroma_me=1 trellis=2 8x8dct=1 cqm=0 deadzone=21,11 fast_pskip=1 chroma_qp_offset=-2 threads=18 lookahead_threads=3 sliced_threads=0 nr=0 decimate=1 interlaced=0 bluray_compat=0 constrained_intra=0 bframes=3 b_pyramid=2 b_adapt=1 b_bias=0 direct=3 weightb=1 open_gop=0 weightp=2 keyint=250 keyint_min=25 scenecut=40 intra_refresh=0 rc_lookahead=50 rc=cbr mbtree=1 bitrate=12000 ratetol=1.0 qcomp=0.60 qpmin=0 qpmax=69 qpstep=4 vbv_maxrate=12000 vbv_bufsize=12000 nal_hrd=none filler=0 ip_ratio=1.40 aq=1:1.00\nOutput #0, mp4, to 'C:\\Users\\Peter\\Desktop\\stuff\\MIUN\\quantitative_research\\video_compression\\compressed_videos\\BVI-HD\\h264\\12\\PlasmaAveragePan_1920x1080_60fps_h264.mp4':\n  Metadata:\n    major_brand     : isom\n    minor_version   : 512\n    compatible_brands: isomiso2avc1mp41\n    encoder         : Lavf62.3.100\n  Stream #0:0(und): Video: h264 (avc1 / 0x31637661), yuv420p(tv, progressive), 1920x1080, q=2-31, 12000 kb/s, 60 fps, 15360 tbn (default)\n    Metadata:\n      encoder         : Lavc62.11.100 libx264\n      handler_name    : VideoHandler\n      vendor_id       : [0][0][0][0]\n    Side data:\n      cpb: bitrate max/min/avg: 12000000/0/12000000 buffer size: 12000000 vbv_delay: N/A\nframe=    0 fps=0.0 q=0.0 size=       0KiB time=N/A bitrate=N/A speed=N/A elapsed=0:00:00.52    \nframe=   18 fps= 18 q=22.0 size=     256KiB time=00:00:00.23 bitrate=8989.5kbits/s speed=0.227x elapsed=0:00:01.02    \nframe=   57 fps= 36 q=22.0 size=    1024KiB time=00:00:00.91 bitrate=9151.6kbits/s speed=0.586x elapsed=0:00:01.56    \nframe=   96 fps= 46 q=22.0 size=    2048KiB time=00:00:01.56 bitrate=10709.1kbits/s speed=0.749x elapsed=0:00:02.09    \nframe=  127 fps= 48 q=22.0 size=    2816KiB time=00:00:02.01 bitrate=11439.2kbits/s speed=0.765x elapsed=0:00:02.63    \nframe=  164 fps= 51 q=22.0 size=    3840KiB time=00:00:02.70 bitrate=11651.0kbits/s speed=0.843x elapsed=0:00:03.20    \nframe=  206 fps= 55 q=22.0 size=    4864KiB time=00:00:03.38 bitrate=11777.2kbits/s speed=0.903x elapsed=0:00:03.74    \nframe=  252 fps= 59 q=21.0 size=    5888KiB time=00:00:04.16 bitrate=11576.4kbits/s speed=0.974x elapsed=0:00:04.27    \n[mp4 @ 000001da35ff1340] Starting second pass: moving the moov atom to the beginning of the file\n[out#0/mp4 @ 000001da36837900] video:7184KiB audio:0KiB subtitle:0KiB other streams:0KiB global headers:0KiB muxing overhead: 0.061808%\nframe=  300 fps= 62 q=-1.0 Lsize=    7189KiB time=00:00:04.96 bitrate=11857.0kbits/s speed=1.03x elapsed=0:00:04.81    \n[libx264 @ 000001da36722b80] frame I:3     Avg QP: 4.99  size: 40318\n[libx264 @ 000001da36722b80] frame P:75    Avg QP:16.32  size: 28505\n[libx264 @ 000001da36722b80] frame B:222   Avg QP:17.25  size: 22960\n[libx264 @ 000001da36722b80] consecutive B-frames:  1.0%  0.7%  1.0% 97.3%\n[libx264 @ 000001da36722b80] mb I  I16..4: 68.9% 30.7%  0.4%\n[libx264 @ 000001da36722b80] mb P  I16..4:  0.3% 13.1%  0.4%  P16..4:  2.8%  1.3%  0.5%  0.0%  0.0%    skip:81.7%\n[libx264 @ 000001da36722b80] mb B  I16..4:  0.3%  6.3%  0.3%  B16..8:  5.6%  3.5%  0.7%  direct: 1.2%  skip:82.1%  L0:44.8% L1:36.1% BI:19.0%\n[libx264 @ 000001da36722b80] 8x8 transform intra:86.9% inter:84.4%\n[libx264 @ 000001da36722b80] direct mvs  spatial:95.5% temporal:4.5%\n[libx264 @ 000001da36722b80] coded y,uvDC,uvAC intra: 68.6% 81.8% 77.9% inter: 5.1% 7.7% 6.0%\n[libx264 @ 000001da36722b80] i16 v,h,dc,p: 87%  7%  5%  1%\n[libx264 @ 000001da36722b80] i8 v,h,dc,ddl,ddr,vr,hd,vl,hu: 23% 15% 23%  5%  6%  7%  7%  7%  7%\n[libx264 @ 000001da36722b80] i4 v,h,dc,ddl,ddr,vr,hd,vl,hu: 14% 16% 10%  6% 15% 11% 15%  6%  6%\n[libx264 @ 000001da36722b80] i8c dc,h,v,p: 49% 17% 21% 13%\n[libx264 @ 000001da36722b80] Weighted P-Frames: Y:1.3% UV:1.3%\n[libx264 @ 000001da36722b80] ref P L0: 47.0%  3.0% 21.5% 15.3% 13.1%  0.2%\n[libx264 @ 000001da36722b80] ref B L0: 77.9% 14.1%  5.9%  2.1%\n[libx264 @ 000001da36722b80] ref B L1: 95.0%  5.0%\n[libx264 @ 000001da36722b80] kb/s:11769.46\n",
  "seconds": 5.055017948150635,
  "probe_out": {}
}